<svg width="10" height="19" viewBox="0 0 10 19" fill="none" xmlns="http://www.w3.org/2000/svg">
<path d="M5.94691 9.49961L1.2269 15.5471C0.97857 15.8672 0.839181 16.3002 0.839181 16.7515C0.839181 17.2028 0.97857 17.6358 1.2269 17.9559C1.35085 18.116 1.49832 18.2431 1.6608 18.3298C1.82328 18.4165 1.99756 18.4612 2.17357 18.4612C2.34959 18.4612 2.52386 18.4165 2.68634 18.3298C2.84882 18.2431 2.99629 18.116 3.12024 17.9559L8.77357 10.7125C8.89854 10.5537 8.99773 10.3648 9.06543 10.1566C9.13312 9.94842 9.16797 9.72513 9.16797 9.49961C9.16797 9.27409 9.13312 9.0508 9.06543 8.84262C8.99773 8.63445 8.89854 8.4455 8.77357 8.28669L3.12024 0.957942C2.99565 0.799611 2.8479 0.674348 2.68545 0.589334C2.523 0.504319 2.34905 0.461224 2.17357 0.462524C1.9981 0.461224 1.82415 0.504319 1.6617 0.589334C1.49925 0.674348 1.35149 0.799611 1.22691 0.957942C0.978571 1.27802 0.839182 1.711 0.839182 2.16232C0.839182 2.61363 0.978571 3.04661 1.22691 3.36669L5.94691 9.49961Z" fill="white"/>
</svg>
