<svg width="10" height="19" viewBox="0 0 10 19" fill="none" xmlns="http://www.w3.org/2000/svg">
<path d="M4.05334 9.49941L8.77334 3.45191C9.02167 3.13184 9.16106 2.69886 9.16106 2.24754C9.16106 1.79622 9.02167 1.36324 8.77334 1.04316C8.64939 0.883045 8.50192 0.755954 8.33944 0.669224C8.17696 0.582494 8.00269 0.537842 7.82667 0.537842C7.65066 0.537842 7.47638 0.582494 7.3139 0.669224C7.15142 0.755954 7.00396 0.883045 6.88001 1.04316L1.22667 8.2865C1.1017 8.44531 1.00251 8.63425 0.934818 8.84243C0.867127 9.0506 0.832275 9.27389 0.832275 9.49941C0.832275 9.72493 0.867127 9.94822 0.934818 10.1564C1.00251 10.3646 1.1017 10.5535 1.22667 10.7123L6.88001 18.0411C7.00459 18.1994 7.15235 18.3247 7.3148 18.4097C7.47725 18.4947 7.6512 18.5378 7.82667 18.5365C8.00215 18.5378 8.1761 18.4947 8.33855 18.4097C8.501 18.3247 8.64875 18.1994 8.77334 18.0411C9.02167 17.721 9.16106 17.288 9.16106 16.8367C9.16106 16.3854 9.02167 15.9524 8.77334 15.6323L4.05334 9.49941Z" fill="white"/>
</svg>
