<svg width="12" height="12" viewBox="0 0 12 12" fill="none" xmlns="http://www.w3.org/2000/svg">
<path d="M10.8185 2.53904C10.7131 2.46017 10.5932 2.40288 10.4656 2.37047L3.57574 0.779828C3.44726 0.750166 3.3142 0.7461 3.18415 0.767863C3.05409 0.789626 2.9296 0.836792 2.81778 0.906666C2.59194 1.04778 2.43142 1.27284 2.37151 1.53231C2.34185 1.66079 2.33778 1.79386 2.35955 1.92391C2.38131 2.05396 2.42848 2.17845 2.49835 2.29027C2.63947 2.51611 2.86452 2.67664 3.124 2.73654L7.66599 3.77789L1.2293 7.79997C1.00439 7.94052 0.844515 8.16465 0.784854 8.42307C0.725193 8.68149 0.770632 8.95302 0.911176 9.17794C1.05172 9.40286 1.27585 9.56273 1.53427 9.62239C1.79269 9.68205 2.06423 9.63661 2.28914 9.49607L8.72583 5.47398L7.6707 10.0128C7.64048 10.1413 7.636 10.2745 7.65752 10.4048C7.67904 10.535 7.72614 10.6597 7.79609 10.7717C7.86605 10.8836 7.95748 10.9806 8.06511 11.057C8.17274 11.1335 8.29444 11.1879 8.42319 11.217C8.55169 11.2472 8.68491 11.2517 8.81516 11.2302C8.9454 11.2087 9.0701 11.1616 9.18205 11.0916C9.294 11.0217 9.391 10.9302 9.46744 10.8226C9.54388 10.715 9.59825 10.5933 9.62742 10.4645L11.2181 3.5747C11.2449 3.4458 11.246 3.31288 11.2213 3.18356C11.1771 2.92409 11.0324 2.69251 10.8185 2.53904Z" fill="white"/>
</svg>
